<?xml version="1.0" encoding="UTF-8"?>
<svg xmlns="http://www.w3.org/2000/svg" viewBox="0 0 180 180">
  <defs>
    <style>
      .cls-1 {
        fill: #353433;
      }

      .cls-2 {
        fill: #fefefe;
      }
    </style>
  </defs>
  <g id="_レイヤー_1" data-name="レイヤー 1">
    <circle class="cls-1" cx="90" cy="90" r="90"/>
  </g>
  <g id="_レイヤー_2" data-name="レイヤー 2">
    <path class="cls-2" d="M89.59,105.16c-.54-5.47-1.78-9.45-1.99-15.95-.04-1.2.74-3.71-.99-3.47-4.99,7.95,1.14,13.86,1.99,21.41.24,2.1.64,12-1.52,12.45-4,.84-3.34-7.12-3.75-9.19-1.5-7.54-2.63-16.87-10.21-20.69-1.42,4.67,6.6,10.28,7.29,12.65,1.16,3.98.09,11.53,2.19,16.23-4.96-2.16-9.68-5.01-14.96-6.47s-11.26-2.26-16.97-2.48c1.78,4.48,5.24,8.44,9.07,11.36,5.05,3.85,17,7.2,19.33,9.59,1.36,1.39,3.98,6.73,4.53,8.92-3.18,2.83-29.19-6.31-34.17-8.22-10.81-4.14-20.78-8.63-29.7-16.17-3.28-2.77-13.36-13.16-13.98-16.94-.53-3.22,4.07-.05,4-2.49-7.37-1.21-4.72-4.94-2.36-9.85,5.99-12.43,16.5-21.82,28.29-28.54,18.08-10.31,40.81-21.26,61.88-15.41.94,1.33-7.24,7.29-2.45,12.9,13.49,6.42,26.74,13.79,36.88,24.92,10.27-12.77,21.09-25.46,39.41-23.88-6.64,11.4-7.82,26.26-17.95,35.36l6.49,8.45,11.45,26.91c-18.27,2.26-28.86-10.48-39.41-22.88-8.52,10.34-18.88,15.58-32.43,15.91-.49-.47,2.73-11.8,3.29-13.15,1.84-4.47,6.91-6.65,6.68-11.75-7.17,1.14-10.37,22.66-12.92,24.45-1.01.7-1.93.47-3.03.45-1.04-1,2.83-8.04,0-8.96-.55,3.6.5,10.35-4,8.96-.33-4.67.46-9.84,0-14.45ZM88.58,80.75c1.33-7.52.46-17.15-4.97-22.91l.23,9.22,4.74,13.68ZM59.79,67.66c1.81,2.83,9.3-.18,6.38-4.86s-8.73,1.18-6.38,4.86ZM95.56,109.64c-.05-2.87,1.22-5.52,1.06-8.43s-2.19-5.4-2.02-7.94c.28-4.35,7.94-13.07,5.95-19.49-7.14,4.64-7.46,13.68-6.96,21.41l1.98,14.45ZM69.24,74.87c-3.84,1.22-.89,8.48,3.44,5.45,2.45-1.72.87-6.82-3.44-5.45ZM23.87,83.88c-1.66,1.06-1.43,5.79,1.55,6.67,7.38,2.18,4.59-10.57-1.55-6.67ZM59.16,83.75c-2.01.56-2.01,4.4,0,4.96,4.59,1.29,4.59-6.25,0-4.96ZM63.64,95.7c-1.74-1.73-5.09,1.6-1.48,2.97,2.12.81,1.77-2.68,1.48-2.97Z"/>
  </g>
</svg>